<?xml version="1.0" standalone="no"?><!DOCTYPE svg PUBLIC "-//W3C//DTD SVG 1.1//EN" "http://www.w3.org/Graphics/SVG/1.1/DTD/svg11.dtd"><svg class="icon" width="32px" height="32.00px" viewBox="0 0 1024 1024" version="1.1" xmlns="http://www.w3.org/2000/svg"><path fill="#d81e06" d="M512.106667 42.666667a149.44 149.44 0 0 1 149.418666 149.44V213.333333h131.2a42.666667 42.666667 0 0 1 42.538667 39.125334l56.874667 682.666666A42.666667 42.666667 0 0 1 849.621333 981.333333H174.378667a42.666667 42.666667 0 0 1-42.517334-46.208l56.874667-682.666666A42.666667 42.666667 0 0 1 231.253333 213.333333H362.666667v-21.226666a149.44 149.44 0 0 1 144.298666-149.333334l5.12-0.106666zM362.666667 277.333333h-117.333334L192 917.333333h640l-53.333333-640h-117.141334v21.013334a32 32 0 0 1-28.906666 31.872l-3.093334 0.128a32 32 0 0 1-32-32V277.333333h-170.88l0.021334 21.013334a32 32 0 0 1-28.928 31.872l-3.072 0.128a32 32 0 0 1-32-32V277.333333z m32 85.333334a32 32 0 0 1 32 32v21.333333a32 32 0 0 1-64 0v-21.333333a32 32 0 0 1 32-32z m234.666666 0a32 32 0 0 1 32 32v21.333333a32 32 0 0 1-64 0v-21.333333a32 32 0 0 1 32-32zM512.106667 106.666667A85.44 85.44 0 0 0 426.666667 192.106667V213.333333h170.858666v-21.226666a85.44 85.44 0 0 0-81.152-85.333334l-4.266666-0.106666z"  /></svg>