<?xml version="1.0" standalone="no"?><!DOCTYPE svg PUBLIC "-//W3C//DTD SVG 1.1//EN" "http://www.w3.org/Graphics/SVG/1.1/DTD/svg11.dtd"><svg class="icon" width="32px" height="32.00px" viewBox="0 0 1024 1024" version="1.1" xmlns="http://www.w3.org/2000/svg"><path fill="#d81e06" d="M729.6 151.04c-50.89792 0-92.16 41.26208-92.16 92.16v362.3424c-0.75264 96.9216-79.54944 175.2576-176.64 175.2576-97.55648 0-176.64-79.08352-176.64-176.64 0-97.55648 79.08352-176.64 176.64-176.64 51.72224 0 98.2528 22.23104 130.56 57.66144V243.16928h46.08V274.23744l-46.08 6.1952V243.2c0-76.34944 61.89056-138.24 138.24-138.24 31.4112 0 60.9536 10.52672 85.20192 29.6704 0.27136 0.2048 0.54272 0.4096 0.80384 0.62464C928.75264 226.54464 995.84 363.78624 995.84 512c0 267.2128-216.6272 483.84-483.84 483.84S28.16 779.2128 28.16 512 244.7872 28.16 512 28.16c37.07904 0 73.63584 4.17792 109.16864 12.36992a23.04 23.04 0 1 1-10.35776 44.9024A439.18336 439.18336 0 0 0 512 74.24c-241.7664 0-437.76 195.9936-437.76 437.76s195.9936 437.76 437.76 437.76 437.76-195.9936 437.76-437.76c0-134.09792-60.6464-258.2016-163.0208-340.82816-16.31744-13.03552-36.0192-20.13184-57.1392-20.13184zM460.8 734.72c72.10496 0 130.56-58.45504 130.56-130.56S532.90496 473.6 460.8 473.6 330.24 532.05504 330.24 604.16s58.45504 130.56 130.56 130.56z"  /></svg>