<?xml version="1.0" standalone="no"?><!DOCTYPE svg PUBLIC "-//W3C//DTD SVG 1.1//EN" "http://www.w3.org/Graphics/SVG/1.1/DTD/svg11.dtd"><svg class="icon" width="32px" height="32.00px" viewBox="0 0 1024 1024" version="1.1" xmlns="http://www.w3.org/2000/svg"><path fill="#d81e06" d="M928.896 951.488H95.04a42.624 42.624 0 0 1-42.496-42.496V414.016c0-23.424 19.072-42.496 42.496-42.496h833.792c23.424 0 42.56 19.072 42.56 42.496v494.976a42.624 42.624 0 0 1-42.496 42.496zM95.04 409.728a4.288 4.288 0 0 0-4.224 4.224v494.976c0 2.304 1.856 4.224 4.224 4.224h833.792c2.368 0 4.224-1.92 4.224-4.224V414.016a4.288 4.288 0 0 0-4.224-4.224H95.04z"  /><path fill="#d81e06" d="M189.568 409.728a18.88 18.88 0 0 1-15.488-7.68 19.2 19.2 0 0 1 4.032-26.816l247.168-181.632a19.2 19.2 0 1 1 22.784 30.912L200.896 406.144a19.328 19.328 0 0 1-11.328 3.584zM832.896 409.728a19.008 19.008 0 0 1-11.264-3.584L572.992 224.576a19.136 19.136 0 1 1 22.656-30.912l248.576 181.632a19.072 19.072 0 0 1-11.328 34.432z"  /><path fill="#d81e06" d="M504.64 267.584a97.536 97.536 0 0 1 0-195.008c53.888 0 97.6 43.84 97.6 97.536 0 53.76-43.712 97.472-97.6 97.472z m0-156.864a59.264 59.264 0 1 0 0 118.464 59.264 59.264 0 0 0 0-118.464z"  /><path fill="#d81e06" d="M156.736 686.336l25.92-2.24c1.28 10.432 4.096 18.944 8.576 25.536a48 48 0 0 0 20.928 16.256c9.472 4.032 20.032 6.144 31.872 6.144 10.496 0 19.84-1.536 27.776-4.608a38.848 38.848 0 0 0 17.92-12.864 29.888 29.888 0 0 0 5.888-17.728 26.56 26.56 0 0 0-5.76-17.088 40.576 40.576 0 0 0-18.624-12.288 368.64 368.64 0 0 0-36.992-10.176c-19.072-4.544-32.448-8.896-40.064-12.928a56 56 0 0 1-22.144-19.264 48 48 0 0 1-7.296-26.048c0-10.496 2.944-20.096 8.96-29.376a55.68 55.68 0 0 1 26.048-20.736c11.392-4.672 24.064-7.04 38.08-7.04 15.424 0 28.992 2.496 40.704 7.36a57.856 57.856 0 0 1 27.136 22.016c6.4 9.6 9.664 20.48 10.24 32.64l-26.368 2.048c-1.408-13.184-6.208-23.168-14.336-29.824-8.256-6.72-20.288-10.048-36.288-10.048-16.576 0-28.672 3.072-36.288 9.152a27.456 27.456 0 0 0-11.392 22.08c0 7.36 2.624 13.504 8.064 18.368 5.312 4.8 19.136 9.664 41.408 14.784 22.336 5.12 37.696 9.472 45.952 13.248 12.224 5.632 21.12 12.672 26.88 21.184a51.392 51.392 0 0 1 8.64 29.632c0 11.072-3.2 21.44-9.408 31.232a62.208 62.208 0 0 1-27.328 22.72 96.64 96.64 0 0 1-40.064 8.192c-18.816 0-34.496-2.816-47.168-8.256-12.736-5.44-22.656-13.76-29.888-24.768s-11.072-23.424-11.584-37.312zM336.832 753.088L416.64 545.344h29.568l85.12 207.68h-31.424l-24.256-62.784H388.864l-22.784 62.848h-29.248z m60.032-85.248H467.2l-21.696-57.536a540.032 540.032 0 0 1-14.72-43.136 278.08 278.08 0 0 1-11.2 39.68l-22.72 60.992zM552.064 753.088V545.344h27.456v183.296h102.4v24.384H552.064zM715.2 753.088V545.344h150.144v24.576h-122.752V633.6h114.944v24.256h-114.944v70.784h127.616v24.384h-155.008z"  /></svg>