<?xml version="1.0" standalone="no"?><!DOCTYPE svg PUBLIC "-//W3C//DTD SVG 1.1//EN" "http://www.w3.org/Graphics/SVG/1.1/DTD/svg11.dtd"><svg class="icon" width="32px" height="32.00px" viewBox="0 0 1024 1024" version="1.1" xmlns="http://www.w3.org/2000/svg"><path d="M550.912 890.88c-4.096 0-7.9872-0.8192-11.8784-2.4576-11.4688-4.7104-18.8416-15.9744-18.8416-28.2624v-156.672c-96.256-68.1984-309.0432 65.536-385.4336 125.1328-10.4448 7.9872-24.576 8.6016-35.6352 1.6384-11.0592-7.168-16.1792-20.48-13.1072-33.1776 99.1232-401.408 347.3408-475.9552 433.9712-489.6768V163.84c0-12.288 7.3728-23.552 18.8416-28.2624 11.4688-4.9152 24.576-2.2528 33.3824 6.3488l357.1712 348.16c5.9392 5.7344 9.216 13.7216 9.216 21.9136s-3.2768 16.1792-9.216 21.9136l-357.1712 348.16c-5.7344 5.7344-13.5168 8.8064-21.2992 8.8064z m-96.8704-267.0592c44.032 0 84.992 12.0832 117.76 43.008 6.144 5.7344 9.6256 13.9264 9.6256 22.3232v98.304L864.0512 512 581.632 236.7488v98.304c0 16.7936-13.312 30.3104-30.1056 30.72-11.264 0.4096-261.5296 12.0832-381.7472 364.1344 72.2944-45.8752 185.9584-106.0864 284.2624-106.0864z" fill="#2F4072" /><path d="M343.2448 579.7888c-5.9392 0-11.8784-2.048-16.7936-5.9392a26.8288 26.8288 0 0 1-3.6864-37.4784c44.4416-54.272 95.0272-93.3888 150.3232-116.5312 13.7216-5.7344 29.0816 0.8192 34.816 14.336 5.7344 13.5168-0.6144 29.0816-14.336 34.816-47.104 19.6608-90.7264 53.8624-129.6384 101.1712-5.3248 6.3488-12.9024 9.6256-20.6848 9.6256z" fill="#FE76FF" /></svg>