<?xml version="1.0" standalone="no"?><!DOCTYPE svg PUBLIC "-//W3C//DTD SVG 1.1//EN" "http://www.w3.org/Graphics/SVG/1.1/DTD/svg11.dtd"><svg t="1734318738547" class="icon" viewBox="0 0 1024 1024" version="1.1" xmlns="http://www.w3.org/2000/svg" p-id="6867" xmlns:xlink="http://www.w3.org/1999/xlink" width="32" height="32"><path d="M512 958.8C265.6 958.8 65.2 758.4 65.2 512S265.6 65.2 512 65.2 958.8 265.6 958.8 512 758.4 958.8 512 958.8z m0-832c-212.4 0-385.2 172.8-385.2 385.2S299.6 897.2 512 897.2 897.2 724.4 897.2 512 724.4 126.8 512 126.8z" p-id="6868" fill="#d81e06"></path><path d="M512 512m-169.5 0a169.5 169.5 0 1 0 339 0 169.5 169.5 0 1 0-339 0Z" p-id="6869" fill="#d81e06"></path></svg>